<?xml version="1.0" encoding="utf-8"?>
<!-- Generator: Adobe Illustrator 27.9.2, SVG Export Plug-In . SVG Version: 6.00 Build 0)  -->
<svg version="1.1" id="Ebene_1" xmlns="http://www.w3.org/2000/svg" xmlns:xlink="http://www.w3.org/1999/xlink" x="0px" y="0px"
	 viewBox="0 0 50 50" style="enable-background:new 0 0 50 50;" xml:space="preserve">
<style type="text/css">
	.st0{fill:#029A39;}
</style>
<g>
	<path class="st0" d="M5.22,32.1c0-4.77,0-9.55,0-14.32c0.02-0.04,0.05-0.07,0.06-0.11c0.07-0.73,0.03-1.47,0.27-2.19
		c0.16-0.48,0.17-1.01,0.33-1.49c0.52-1.63,1.4-3.02,2.9-3.92c0.5-0.3,1-0.67,1.65-0.56c0.05,0.01,0.11-0.05,0.16-0.08
		c0.09-0.04,0.18-0.12,0.27-0.12c0.51-0.03,1.03-0.08,1.54-0.06c1.86,0.08,3.29,0.99,4.38,2.44c0.96,1.27,1.41,2.76,1.62,4.33
		c0.08,0.59,0.11,1.18,0.17,1.77c0.07-0.32,0.12-0.64,0.13-0.97c0.06-0.99,0.24-1.96,0.56-2.9c0.58-1.67,1.49-3.07,3.08-3.95
		C23.88,9.11,25.48,9,27.13,9.5c1.81,0.54,2.98,1.81,3.78,3.47c0.49,1.03,0.76,2.13,0.89,3.27c0.06,0.54,0.1,1.08,0.15,1.62
		c0.09-0.44,0.11-0.87,0.15-1.31c0.1-1.26,0.39-2.49,0.94-3.63c1.1-2.31,3.18-3.89,6.11-3.67c1.91,0.14,3.38,1.03,4.47,2.57
		c1.12,1.58,1.6,3.41,1.62,5.3c0.06,4.89,0.03,9.78,0.03,14.66c0,0.53-0.02,1.05-0.07,1.57c-0.1,1.22-0.39,2.4-0.89,3.52
		c-1.48,3.31-4.82,4.55-7.9,3.38c-0.49-0.18-0.95-0.46-1.37-0.77c-0.41-0.31-0.78-0.68-1.1-1.08c-0.32-0.39-0.58-0.83-0.82-1.28
		c-0.61-1.16-0.86-2.43-1.01-3.72c-0.05-0.44-0.07-0.88-0.1-1.31c-0.11,0.52-0.15,1.04-0.21,1.55c-0.18,1.51-0.59,2.95-1.42,4.24
		c-1.77,2.76-5.12,3.46-7.78,2.18c-1.41-0.68-2.33-1.83-2.98-3.22c-0.56-1.19-0.82-2.46-0.91-3.76c-0.02-0.33-0.06-0.66-0.09-0.99
		c-0.06,0.1-0.07,0.2-0.08,0.3c-0.04,1.01-0.16,2.01-0.44,2.99c-0.47,1.65-1.22,3.12-2.67,4.16c-1.74,1.25-3.63,1.4-5.62,0.76
		c-0.4-0.13-0.78-0.34-1.13-0.56c-0.35-0.23-0.71-0.48-0.98-0.8c-0.26-0.3-0.55-0.57-0.78-0.9c-0.16-0.24-0.31-0.49-0.45-0.74
		c-0.74-1.4-1.06-2.92-1.16-4.49C5.29,32.59,5.25,32.35,5.22,32.1z"/>
	<path class="st0" d="M5.22,32.1c0.03,0.24,0.07,0.48,0.09,0.73c0.1,1.57,0.43,3.08,1.16,4.49c0.13,0.26,0.28,0.5,0.45,0.74
		c0.22,0.33,0.52,0.6,0.78,0.9c0.27,0.31,0.63,0.57,0.98,0.8c0.35,0.23,0.73,0.44,1.13,0.56c1.99,0.63,3.87,0.49,5.62-0.76
		c1.45-1.04,2.2-2.51,2.67-4.16c0.28-0.98,0.4-1.98,0.44-2.99c0-0.1,0.02-0.2,0.08-0.3c0.03,0.33,0.07,0.66,0.09,0.99
		c0.09,1.31,0.35,2.57,0.91,3.76c0.65,1.39,1.57,2.54,2.98,3.22c2.66,1.28,6.02,0.58,7.78-2.18c0.83-1.3,1.25-2.73,1.42-4.24
		c0.06-0.52,0.1-1.04,0.21-1.55c0.03,0.44,0.05,0.88,0.1,1.31c0.15,1.29,0.4,2.56,1.01,3.72c0.24,0.45,0.5,0.89,0.82,1.28
		c0.32,0.4,0.69,0.78,1.1,1.08c0.42,0.31,0.88,0.59,1.37,0.77c3.08,1.17,6.42-0.07,7.9-3.38c0.5-1.12,0.79-2.3,0.89-3.52
		c0.04-0.52,0.07-1.05,0.07-1.57c0-4.89,0.04-9.78-0.03-14.66c-0.02-1.89-0.5-3.72-1.62-5.3c-1.09-1.54-2.56-2.43-4.47-2.57
		c-2.93-0.22-5.01,1.36-6.11,3.67c-0.55,1.15-0.83,2.37-0.94,3.63c-0.04,0.43-0.06,0.87-0.15,1.31c-0.05-0.54-0.09-1.08-0.15-1.62
		c-0.13-1.13-0.4-2.23-0.89-3.27c-0.79-1.66-1.97-2.93-3.78-3.47C25.48,9,23.88,9.11,22.35,9.97c-1.6,0.89-2.51,2.29-3.08,3.95
		c-0.32,0.94-0.51,1.91-0.56,2.9c-0.02,0.32-0.06,0.65-0.13,0.97c-0.06-0.59-0.09-1.18-0.17-1.77c-0.21-1.57-0.65-3.05-1.62-4.33
		c-1.1-1.45-2.52-2.36-4.38-2.44c-0.51-0.02-1.02,0.03-1.54,0.06c-0.09,0.01-0.18,0.08-0.27,0.12c-0.05,0.03-0.11,0.09-0.16,0.08
		c-0.65-0.1-1.15,0.26-1.65,0.56c-1.5,0.9-2.38,2.29-2.9,3.92C5.72,14.47,5.71,15,5.55,15.48c-0.24,0.72-0.2,1.46-0.27,2.19
		c0,0.04-0.04,0.07-0.06,0.11"/>
</g>
</svg>
